<?xml version="1.0" encoding="UTF-8"?>
<svg width="700pt" height="700pt" version="1.1" viewBox="0 0 700 700" xmlns="http://www.w3.org/2000/svg" xmlns:xlink="http://www.w3.org/1999/xlink">
 <defs>
  <symbol id="u" overflow="visible">
   <path d="m18.766-1.125c-0.96875 0.5-1.9805 0.875-3.0312 1.125-1.043 0.25781-2.1367 0.39062-3.2812 0.39062-3.3984 0-6.0898-0.94531-8.0781-2.8438-1.9922-1.9062-2.9844-4.4844-2.9844-7.7344 0-3.2578 0.99219-5.8359 2.9844-7.7344 1.9883-1.9062 4.6797-2.8594 8.0781-2.8594 1.1445 0 2.2383 0.13281 3.2812 0.39062 1.0508 0.25 2.0625 0.625 3.0312 1.125v4.2188c-0.98047-0.65625-1.9453-1.1406-2.8906-1.4531-0.94922-0.3125-1.9492-0.46875-3-0.46875-1.875 0-3.3516 0.60547-4.4219 1.8125-1.0742 1.1992-1.6094 2.8555-1.6094 4.9688 0 2.1055 0.53516 3.7617 1.6094 4.9688 1.0703 1.1992 2.5469 1.7969 4.4219 1.7969 1.0508 0 2.0508-0.14844 3-0.45312 0.94531-0.3125 1.9102-0.80078 2.8906-1.4688z"/>
  </symbol>
  <symbol id="e" overflow="visible">
   <path d="m13.734-11.141c-0.4375-0.19531-0.87109-0.34375-1.2969-0.4375-0.41797-0.10156-0.83984-0.15625-1.2656-0.15625-1.2617 0-2.2305 0.40625-2.9062 1.2188-0.67969 0.80469-1.0156 1.9531-1.0156 3.4531v7.0625h-4.8906v-15.312h4.8906v2.5156c0.625-1 1.3438-1.7266 2.1562-2.1875 0.82031-0.46875 1.8008-0.70312 2.9375-0.70312 0.16406 0 0.34375 0.011719 0.53125 0.03125 0.19531 0.011719 0.47656 0.039062 0.84375 0.078125z"/>
  </symbol>
  <symbol id="b" overflow="visible">
   <path d="m17.641-7.7031v1.4062h-11.453c0.125 1.1484 0.53906 2.0078 1.25 2.5781 0.70703 0.57422 1.7031 0.85938 2.9844 0.85938 1.0312 0 2.082-0.14844 3.1562-0.45312 1.082-0.3125 2.1914-0.77344 3.3281-1.3906v3.7656c-1.1562 0.4375-2.3125 0.76562-3.4688 0.98438-1.1562 0.22656-2.3125 0.34375-3.4688 0.34375-2.7734 0-4.9297-0.70312-6.4688-2.1094-1.5312-1.4062-2.2969-3.3789-2.2969-5.9219 0-2.5 0.75391-4.4609 2.2656-5.8906 1.5078-1.4375 3.582-2.1562 6.2188-2.1562 2.4062 0 4.332 0.73047 5.7812 2.1875 1.4453 1.4492 2.1719 3.3828 2.1719 5.7969zm-5.0312-1.625c0-0.92578-0.27344-1.6719-0.8125-2.2344-0.54297-0.57031-1.25-0.85938-2.125-0.85938-0.94922 0-1.7188 0.26562-2.3125 0.79688s-0.96484 1.2969-1.1094 2.2969z"/>
  </symbol>
  <symbol id="d" overflow="visible">
   <path d="m9.2188-6.8906c-1.0234 0-1.793 0.17188-2.3125 0.51562-0.51172 0.34375-0.76562 0.85547-0.76562 1.5312 0 0.625 0.20703 1.1172 0.625 1.4688 0.41406 0.34375 0.98828 0.51562 1.7188 0.51562 0.92578 0 1.7031-0.32812 2.3281-0.98438 0.63281-0.66406 0.95312-1.4922 0.95312-2.4844v-0.5625zm7.4688-1.8438v8.7344h-4.9219v-2.2656c-0.65625 0.92969-1.3984 1.6055-2.2188 2.0312-0.82422 0.41406-1.8242 0.625-3 0.625-1.5859 0-2.8711-0.45703-3.8594-1.375-0.99219-0.92578-1.4844-2.1289-1.4844-3.6094 0-1.7891 0.61328-3.1016 1.8438-3.9375 1.2383-0.84375 3.1797-1.2656 5.8281-1.2656h2.8906v-0.39062c0-0.76953-0.30859-1.332-0.92188-1.6875-0.61719-0.36328-1.5703-0.54688-2.8594-0.54688-1.0547 0-2.0312 0.10547-2.9375 0.3125-0.89844 0.21094-1.7305 0.52344-2.5 0.9375v-3.7344c1.0391-0.25 2.0859-0.44141 3.1406-0.57812 1.0625-0.13281 2.125-0.20312 3.1875-0.20312 2.7578 0 4.75 0.54688 5.9688 1.6406 1.2266 1.0859 1.8438 2.8555 1.8438 5.3125z"/>
  </symbol>
  <symbol id="c" overflow="visible">
   <path d="m7.7031-19.656v4.3438h5.0469v3.5h-5.0469v6.5c0 0.71094 0.14062 1.1875 0.42188 1.4375s0.83594 0.375 1.6719 0.375h2.5156v3.5h-4.1875c-1.9375 0-3.3125-0.39844-4.125-1.2031-0.80469-0.8125-1.2031-2.1797-1.2031-4.1094v-6.5h-2.4219v-3.5h2.4219v-4.3438z"/>
  </symbol>
  <symbol id="j" overflow="visible">
   <path d="m12.766-13.078v-8.2031h4.9219v21.281h-4.9219v-2.2188c-0.66797 0.90625-1.4062 1.5703-2.2188 1.9844s-1.7578 0.625-2.8281 0.625c-1.8867 0-3.4336-0.75-4.6406-2.25-1.2109-1.5-1.8125-3.4258-1.8125-5.7812 0-2.3633 0.60156-4.2969 1.8125-5.7969 1.207-1.5 2.7539-2.25 4.6406-2.25 1.0625 0 2 0.21484 2.8125 0.64062 0.82031 0.42969 1.5664 1.0859 2.2344 1.9688zm-3.2188 9.9219c1.0391 0 1.8359-0.37891 2.3906-1.1406 0.55078-0.76953 0.82812-1.8828 0.82812-3.3438 0-1.457-0.27734-2.5664-0.82812-3.3281-0.55469-0.76953-1.3516-1.1562-2.3906-1.1562-1.043 0-1.8398 0.38672-2.3906 1.1562-0.55469 0.76172-0.82812 1.8711-0.82812 3.3281 0 1.4609 0.27344 2.5742 0.82812 3.3438 0.55078 0.76172 1.3477 1.1406 2.3906 1.1406z"/>
  </symbol>
  <symbol id="i" overflow="visible">
   <path d="m10.5-3.1562c1.0508 0 1.8516-0.37891 2.4062-1.1406 0.55078-0.76953 0.82812-1.8828 0.82812-3.3438 0-1.457-0.27734-2.5664-0.82812-3.3281-0.55469-0.76953-1.3555-1.1562-2.4062-1.1562-1.0547 0-1.8594 0.38672-2.4219 1.1562-0.55469 0.77344-0.82812 1.8828-0.82812 3.3281 0 1.4492 0.27344 2.5586 0.82812 3.3281 0.5625 0.77344 1.3672 1.1562 2.4219 1.1562zm-3.25-9.9219c0.67578-0.88281 1.4219-1.5391 2.2344-1.9688 0.82031-0.42578 1.7656-0.64062 2.8281-0.64062 1.8945 0 3.4453 0.75 4.6562 2.25 1.207 1.5 1.8125 3.4336 1.8125 5.7969 0 2.3555-0.60547 4.2812-1.8125 5.7812-1.2109 1.5-2.7617 2.25-4.6562 2.25-1.0625 0-2.0078-0.21094-2.8281-0.625-0.8125-0.42578-1.5586-1.0859-2.2344-1.9844v2.2188h-4.8906v-21.281h4.8906z"/>
  </symbol>
  <symbol id="h" overflow="visible">
   <path d="m0.34375-15.312h4.8906l4.125 10.391 3.5-10.391h4.8906l-6.4375 16.766c-0.64844 1.6953-1.4023 2.8828-2.2656 3.5625-0.86719 0.6875-2 1.0312-3.4062 1.0312h-2.8438v-3.2188h1.5312c0.83203 0 1.4375-0.13672 1.8125-0.40625 0.38281-0.26172 0.67969-0.73047 0.89062-1.4062l0.14062-0.42188z"/>
  </symbol>
  <symbol id="a" overflow="visible">
   <path d="m9.6406-12.188c-1.0859 0-1.9141 0.39062-2.4844 1.1719-0.57422 0.78125-0.85938 1.9062-0.85938 3.375s0.28516 2.5938 0.85938 3.375c0.57031 0.77344 1.3984 1.1562 2.4844 1.1562 1.0625 0 1.875-0.38281 2.4375-1.1562 0.57031-0.78125 0.85938-1.9062 0.85938-3.375s-0.28906-2.5938-0.85938-3.375c-0.5625-0.78125-1.375-1.1719-2.4375-1.1719zm0-3.5c2.6328 0 4.6914 0.71484 6.1719 2.1406 1.4766 1.418 2.2188 3.3867 2.2188 5.9062 0 2.5117-0.74219 4.4805-2.2188 5.9062-1.4805 1.418-3.5391 2.125-6.1719 2.125-2.6484 0-4.7148-0.70703-6.2031-2.125-1.4922-1.4258-2.2344-3.3945-2.2344-5.9062 0-2.5195 0.74219-4.4883 2.2344-5.9062 1.4883-1.4258 3.5547-2.1406 6.2031-2.1406z"/>
  </symbol>
  <symbol id="g" overflow="visible">
   <path d="m17.75-9.3281v9.3281h-4.9219v-7.1406c0-1.3203-0.03125-2.2344-0.09375-2.7344s-0.16797-0.86719-0.3125-1.1094c-0.1875-0.3125-0.44922-0.55469-0.78125-0.73438-0.32422-0.17578-0.69531-0.26562-1.1094-0.26562-1.0234 0-1.8242 0.39844-2.4062 1.1875-0.58594 0.78125-0.875 1.8711-0.875 3.2656v7.5312h-4.8906v-15.312h4.8906v2.2344c0.73828-0.88281 1.5195-1.5391 2.3438-1.9688 0.83203-0.42578 1.75-0.64062 2.75-0.64062 1.7695 0 3.1133 0.54688 4.0312 1.6406 0.91406 1.0859 1.375 2.6562 1.375 4.7188z"/>
  </symbol>
  <symbol id="t" overflow="visible">
   <path d="m2.3594-21.281h4.8906v11.594l5.625-5.625h5.6875l-7.4688 7.0312 8.0625 8.2812h-5.9375l-5.9688-6.3906v6.3906h-4.8906z"/>
  </symbol>
  <symbol id="s" overflow="visible">
   <path d="m2.3594-15.312h4.8906v15.312h-4.8906zm0-5.9688h4.8906v4h-4.8906z"/>
  </symbol>
  <symbol id="f" overflow="visible">
   <path d="m2.3594-15.312h4.8906v15.031c0 2.0508-0.49609 3.6172-1.4844 4.7031-0.98047 1.082-2.4062 1.625-4.2812 1.625h-2.4219v-3.2188h0.85938c0.92578 0 1.5625-0.21094 1.9062-0.625 0.35156-0.41797 0.53125-1.2461 0.53125-2.4844zm0-5.9688h4.8906v4h-4.8906z"/>
  </symbol>
  <symbol id="r" overflow="visible">
   <path d="m14.312-14.828v3.7188c-1.043-0.4375-2.0547-0.76562-3.0312-0.98438-0.98047-0.21875-1.9023-0.32812-2.7656-0.32812-0.92969 0-1.6211 0.11719-2.0781 0.34375-0.44922 0.23047-0.67188 0.58984-0.67188 1.0781 0 0.38672 0.17188 0.68359 0.51562 0.89062 0.34375 0.21094 0.95703 0.36719 1.8438 0.46875l0.85938 0.125c2.5078 0.32422 4.1953 0.85156 5.0625 1.5781 0.86328 0.73047 1.2969 1.8711 1.2969 3.4219 0 1.6367-0.60547 2.8672-1.8125 3.6875-1.1992 0.8125-2.9922 1.2188-5.375 1.2188-1.0234 0-2.0742-0.078125-3.1562-0.23438-1.0742-0.15625-2.1797-0.39453-3.3125-0.71875v-3.7188c0.96875 0.48047 1.9609 0.83984 2.9844 1.0781 1.0312 0.23047 2.0781 0.34375 3.1406 0.34375 0.95703 0 1.6758-0.12891 2.1562-0.39062 0.47656-0.26953 0.71875-0.66406 0.71875-1.1875 0-0.4375-0.16797-0.75781-0.5-0.96875-0.33594-0.21875-0.99609-0.38281-1.9844-0.5l-0.85938-0.10938c-2.1797-0.26953-3.7031-0.77344-4.5781-1.5156-0.875-0.73828-1.3125-1.8594-1.3125-3.3594 0-1.625 0.55078-2.8281 1.6562-3.6094 1.1133-0.78906 2.8203-1.1875 5.125-1.1875 0.89453 0 1.8359 0.074219 2.8281 0.21875 1 0.13672 2.082 0.35156 3.25 0.64062z"/>
  </symbol>
  <symbol id="q" overflow="visible">
   <path d="m12.422-21.281v3.2188h-2.7031c-0.6875 0-1.1719 0.125-1.4531 0.375-0.27344 0.25-0.40625 0.6875-0.40625 1.3125v1.0625h4.1875v3.5h-4.1875v11.812h-4.8906v-11.812h-2.4375v-3.5h2.4375v-1.0625c0-1.6641 0.46094-2.8984 1.3906-3.7031 0.92578-0.80078 2.3672-1.2031 4.3281-1.2031z"/>
  </symbol>
  <symbol id="p" overflow="visible">
   <path d="m16.547-12.766c0.61328-0.94531 1.3477-1.6719 2.2031-2.1719 0.85156-0.5 1.7891-0.75 2.8125-0.75 1.7578 0 3.0977 0.54688 4.0156 1.6406 0.92578 1.0859 1.3906 2.6562 1.3906 4.7188v9.3281h-4.9219v-7.9844-0.35938c0.007813-0.13281 0.015625-0.32031 0.015625-0.5625 0-1.082-0.16406-1.8633-0.48438-2.3438-0.3125-0.48828-0.82422-0.73438-1.5312-0.73438-0.92969 0-1.6484 0.38672-2.1562 1.1562-0.51172 0.76172-0.77344 1.8672-0.78125 3.3125v7.5156h-4.9219v-7.9844c0-1.6953-0.14844-2.7852-0.4375-3.2656-0.29297-0.48828-0.8125-0.73438-1.5625-0.73438-0.9375 0-1.6641 0.38672-2.1719 1.1562-0.51172 0.76172-0.76562 1.8594-0.76562 3.2969v7.5312h-4.9219v-15.312h4.9219v2.2344c0.60156-0.86328 1.2891-1.5156 2.0625-1.9531 0.78125-0.4375 1.6406-0.65625 2.5781-0.65625 1.0625 0 2 0.25781 2.8125 0.76562 0.8125 0.51172 1.4258 1.2305 1.8438 2.1562z"/>
  </symbol>
  <symbol id="o" overflow="visible">
   <path d="m17.75-9.3281v9.3281h-4.9219v-7.1094c0-1.3438-0.03125-2.2656-0.09375-2.7656s-0.16797-0.86719-0.3125-1.1094c-0.1875-0.3125-0.44922-0.55469-0.78125-0.73438-0.32422-0.17578-0.69531-0.26562-1.1094-0.26562-1.0234 0-1.8242 0.39844-2.4062 1.1875-0.58594 0.78125-0.875 1.8711-0.875 3.2656v7.5312h-4.8906v-21.281h4.8906v8.2031c0.73828-0.88281 1.5195-1.5391 2.3438-1.9688 0.83203-0.42578 1.75-0.64062 2.75-0.64062 1.7695 0 3.1133 0.54688 4.0312 1.6406 0.91406 1.0859 1.375 2.6562 1.375 4.7188z"/>
  </symbol>
  <symbol id="n" overflow="visible">
   <path d="m2.5781-20.406h5.875l7.4219 14v-14h4.9844v20.406h-5.875l-7.4219-14v14h-4.9844z"/>
  </symbol>
  <symbol id="m" overflow="visible">
   <path d="m2.1875-5.9688v-9.3438h4.9219v1.5312c0 0.83594-0.007813 1.875-0.015625 3.125-0.011719 1.25-0.015625 2.0859-0.015625 2.5 0 1.2422 0.03125 2.1328 0.09375 2.6719 0.070313 0.54297 0.17969 0.93359 0.32812 1.1719 0.20703 0.32422 0.47266 0.57422 0.79688 0.75 0.32031 0.16797 0.69141 0.25 1.1094 0.25 1.0195 0 1.8203-0.39062 2.4062-1.1719 0.58203-0.78125 0.875-1.8672 0.875-3.2656v-7.5625h4.8906v15.312h-4.8906v-2.2188c-0.74219 0.89844-1.5234 1.5586-2.3438 1.9844-0.82422 0.41406-1.7344 0.625-2.7344 0.625-1.7617 0-3.1055-0.53906-4.0312-1.625-0.92969-1.082-1.3906-2.6602-1.3906-4.7344z"/>
  </symbol>
  <symbol id="l" overflow="visible">
   <path d="m2.5781-20.406h8.7344c2.5938 0 4.582 0.57812 5.9688 1.7344 1.3945 1.1484 2.0938 2.7891 2.0938 4.9219 0 2.1367-0.69922 3.7812-2.0938 4.9375-1.3867 1.1562-3.375 1.7344-5.9688 1.7344h-3.4844v7.0781h-5.25zm5.25 3.8125v5.7031h2.9219c1.0195 0 1.8047-0.25 2.3594-0.75 0.5625-0.5 0.84375-1.2031 0.84375-2.1094 0-0.91406-0.28125-1.6172-0.84375-2.1094-0.55469-0.48828-1.3398-0.73438-2.3594-0.73438z"/>
  </symbol>
  <symbol id="k" overflow="visible">
   <path d="m14.719-14.828v3.9844c-0.65625-0.45703-1.3242-0.79688-2-1.0156-0.66797-0.21875-1.3594-0.32812-2.0781-0.32812-1.3672 0-2.4336 0.40234-3.2031 1.2031-0.76172 0.79297-1.1406 1.9062-1.1406 3.3438 0 1.4297 0.37891 2.543 1.1406 3.3438 0.76953 0.79297 1.8359 1.1875 3.2031 1.1875 0.75781 0 1.4844-0.10938 2.1719-0.32812 0.6875-0.22656 1.3203-0.56641 1.9062-1.0156v4c-0.76172 0.28125-1.5391 0.48828-2.3281 0.625-0.78125 0.14453-1.5742 0.21875-2.375 0.21875-2.7617 0-4.9219-0.70703-6.4844-2.125-1.5547-1.4141-2.3281-3.3828-2.3281-5.9062 0-2.5312 0.77344-4.5039 2.3281-5.9219 1.5625-1.4141 3.7227-2.125 6.4844-2.125 0.80078 0 1.5938 0.074219 2.375 0.21875 0.78125 0.13672 1.5547 0.35156 2.3281 0.64062z"/>
  </symbol>
 </defs>
 <g>
  <path d="m610.2 336.29-45.574-40.625c-9.668-8.6172-14.789-20.977-14.051-33.906 0.74219-12.93 7.2344-24.617 17.82-32.078 3.668-2.582 5.4648-7.0859 4.5781-11.484-0.88672-4.3945-4.2852-7.8594-8.6641-8.8203-12.379-2.7266-22.324-10.98-27.281-22.656-4.9531-11.672-3.9922-24.562 2.6484-35.367l54.965-89.453c2.5859-4.2109 2.1445-9.6133-1.0938-13.34-3.2422-3.7344-8.5352-4.9375-13.059-2.9688l-98.055 42.566c-11.148 4.8438-23.535 4.0586-33.977-2.1406-10.445-6.2031-17.066-16.691-18.16-28.785-0.40234-4.4688-3.4062-8.2773-7.6562-9.7109-4.2578-1.4258-8.9453-0.21484-11.973 3.0938l-3.0703 3.3555c-8.4258 9.2227-21.406 14.559-35.613 14.637h-0.32422c-15.609 0-30.355-6.207-40.52-17.09l-31.984-33.961c-2.8594-3.0391-7.1562-4.2461-11.176-3.1719-4.0273 1.082-7.1289 4.2852-8.0859 8.3398l-8.9609 38.148c-2.6289 12.68-10.766 23.293-22.332 29.117-11.562 5.8359-24.941 6.0508-36.699 0.60937-4.0703-1.8828-8.875-1.1836-12.238 1.7812-3.3672 2.9688-4.6602 7.6445-3.3047 11.918l1.375 4.3398c3.8516 12.148 2.0469 25.23-4.9453 35.895-6.9922 10.656-18.273 17.516-30.949 18.82l-65.664 6.7461c-4.4609 0.45703-8.2305 3.5078-9.6094 7.7773-1.3828 4.2656-0.11328 8.9453 3.2344 11.93l45.574 40.621c9.668 8.6172 14.785 20.969 14.047 33.898-0.74219 12.934-7.2344 24.621-17.82 32.082-3.6641 2.582-5.4609 7.0859-4.5781 11.48 0.88281 4.3945 4.2734 7.8594 8.6562 8.8281l4.457 0.98438c11.746 2.5859 21.344 9.7773 27.02 20.238 6.2891 11.598 7.0742 25.754 2.1484 38.844-6.7539 17.957-26.371 60.625-26.57 61.055-1.9062 4.1406-1.1406 9.0156 1.9375 12.375 3.0742 3.3672 7.8711 4.5547 12.16 3.0117l57.609-20.617c12.285-4.0664 25.555-2.332 36.387 4.7812 10.828 7.1016 17.707 18.574 18.871 31.469 0.40234 4.4688 3.4062 8.2773 7.6562 9.7109 4.2539 1.4258 8.9414 0.21484 11.973-3.0938l4.0039-4.3789c8.0234-8.7812 19.418-13.203 31.266-12.176 11.848 1.043 22.297 7.4023 28.664 17.449 0.20703 0.32422 0.42969 0.64062 0.66406 0.9375l50.629 64.363c2.1758 2.7695 5.4766 4.3203 8.8945 4.3203 0.98047 0 1.9727-0.12891 2.9492-0.39063 4.3789-1.1836 7.6289-4.8633 8.2578-9.3555l9.9609-71.039c1.5-12.137 8.4961-22.508 19.188-28.449 10.695-5.9375 23.188-6.4023 34.285-1.2617 4.0664 1.875 8.8711 1.1836 12.234-1.7812 3.3672-2.9609 4.6641-7.6367 3.3125-11.91l-1.375-4.3516c-2.2422-7.0781-1.5039-13.984 2.2656-21.113 7.2969-13.812 24.715-25.301 37.395-29.105 19.566-5.8711 61.734-11.219 62.16-11.273 4.4023-0.55078 8.0781-3.6328 9.3945-7.8711 1.3164-4.2266 0.035157-8.8438-3.2773-11.797zm-74.781 9.2656c-16.969 5.0938-40.141 19.848-50.902 40.211-4.0781 7.7148-6.1367 15.777-6.1367 23.848-12.125-1.2539-24.461 1.1875-35.566 7.3633-17.086 9.4883-28.262 26.059-30.637 45.277l-6.25 44.551-33.871-43.055c-10.203-15.762-26.742-25.727-45.477-27.375-14.227-1.2656-28.047 2.4375-39.473 10.301-4.9609-11.379-13.156-21.184-23.863-28.215-16.641-10.918-37.016-13.598-56.172-7.2578l-32.754 11.719c5.875-13.191 12.605-28.68 16.176-38.168 7.2383-19.238 5.9844-40.238-3.4453-57.609-6.3945-11.793-15.961-20.914-27.656-26.586 7.4531-10.016 11.898-22.082 12.633-34.941 1.1367-19.863-6.7344-38.855-21.59-52.094l-26.41-23.539 40.125-4.1328c19.48-2 36.816-12.547 47.562-28.918 7.918-12.066 11.508-26.152 10.48-40.195 12.418 1.4375 25.082-0.74219 36.59-6.5391 17.773-8.9492 30.277-25.25 34.254-44.441l4.0781-17.355 17.512 18.598c14.406 15.418 35.172 24.242 57.035 24.242h0.44531c15.055-0.082032 29.316-4.4258 40.848-12.227 4.9844 10.895 13.203 20.09 23.945 26.465 16.777 9.9648 36.656 11.207 54.547 3.4414l65.086-28.258-36.148 58.836c-10.523 17.129-12.051 37.562-4.1953 56.066 5.2656 12.395 14.074 22.363 25.223 28.887-7.9414 10.227-12.684 22.688-13.441 36.008-1.1406 19.871 6.7305 38.859 21.59 52.102l27.418 24.441c-13.824 2.1992-30.527 5.2461-41.559 8.5508z"/>
  <path d="m495.11 212.97s-7.1367-1.0234-14.512-2.1875c-8.3867-1.3242-30.719-4.4062-56.914-4.4062-20.039 0-31 1.5547-41.906 5.9414-1.1953 0.48047-2.4258 1.0039-3.6953 1.543-5.8672 2.4844-11.934 5.043-18.945 5.4648h-25.574c-7.0117-0.42188-13.074-2.9844-18.945-5.4648-1.2695-0.53516-2.5-1.0625-3.707-1.5469-10.887-4.3828-21.852-5.9375-41.895-5.9375-26.195 0-48.527 3.0781-56.914 4.4062-7.3594 1.1602-14.48 2.1836-14.508 2.1875-5.5742 0.79688-9.7148 5.5703-9.7148 11.203v19.418c0 1.9336 0.49609 3.8359 1.4414 5.5195 0.3125 0.57031 2.6875 4.7656 5.5508 8.6758 2.8867 18.289 8.2227 33.219 15.867 44.41 11.07 16.211 26.555 17.422 48.918 17.422h1.4219c7.3711 0 24.801-0.22266 41.445-6.6641l-8.1797-21.113c-13.336 5.168-28.395 5.1445-34.051 5.1406l-0.62891-0.003907c-22.906 0-26.48-2.0742-30.227-7.5508-6.082-8.9102-10.32-21.633-12.598-37.832-0.29688-2.1211-1.1953-4.1172-2.5859-5.7539-1.1562-1.3594-2.5859-3.5039-3.7344-5.3555v-6.5547c1.6328-0.25 3.3672-0.51563 5.1172-0.78906 7.8594-1.2422 28.789-4.1289 53.383-4.1289 19.133 0 26.512 1.5078 33.426 4.293 1.0859 0.4375 2.1992 0.91016 3.3477 1.3984 4.3516 1.8398 9.3555 3.957 15.172 5.4375-0.21484 1.8906-0.42578 3.7422-0.62891 5.543-1.0469 9.2891-1.9492 17.309-3.3242 22.523l21.887 5.7812c1.8008-6.8164 2.7891-15.602 3.9336-25.773 0.23047-2.0273 0.46484-4.1211 0.71484-6.2578h5.6055c0.24609 2.1328 0.48047 4.2188 0.71094 6.2461 1.1484 10.176 2.1367 18.965 3.9375 25.785 5.4922 20.82 23.562 45.625 78.414 45.625h0.82812c9.8203 0 16.777-0.46484 22.555-1.4961l-3.9961-22.285c-4.4062 0.78906-10.129 1.1445-18.559 1.1445h-0.82812c-32.465 0-51.484-9.6797-56.523-28.77-1.375-5.2188-2.2773-13.242-3.3281-22.539-0.20312-1.7969-0.41016-3.6406-0.625-5.5273 5.8125-1.4805 10.82-3.5977 15.172-5.4375 1.1484-0.48438 2.2617-0.96094 3.3359-1.3906 6.9297-2.793 14.309-4.3008 33.441-4.3008 24.59 0 45.523 2.8867 53.383 4.1289 1.75 0.27734 3.4844 0.54297 5.1172 0.78906v6.5547c-1.0742 1.7422-2.5039 3.9062-3.7344 5.3516-1.3945 1.6367-2.3555 4.0938-2.6523 6.2188-0.69531 4.9805-1.75 12.5-4.1758 20.312l21.621 6.7109c2.4922-8.0352 3.7812-15.652 4.6094-21.324 2.8555-3.9023 5.2148-8.0742 5.5312-8.6445 0.94531-1.6875 1.4414-3.5859 1.4414-5.5195v-19.418c-0.003906-5.6328-4.1445-10.406-9.7188-11.203z"/>
  <path d="m346.36 387.53c-35.664 0-69.68-15.336-93.32-42.082l-16.961 14.988c27.938 31.609 68.133 49.73 110.29 49.73 43.391 0 84.359-19.02 112.41-52.188l-17.289-14.613c-23.738 28.07-58.406 44.164-95.121 44.164z"/>
  <path d="m346.36 138.51c35.031 0 68.633 14.879 92.199 40.828l16.758-15.223c-27.844-30.656-67.559-48.246-108.96-48.246-43.469 0-84.488 19.078-112.54 52.34l17.305 14.59c23.738-28.145 58.449-44.289 95.23-44.289z"/>
  <use x="70" y="644" xlink:href="#u"/>
  <use x="90.550781" y="644" xlink:href="#e"/>
  <use x="104.359375" y="644" xlink:href="#b"/>
  <use x="123.347656" y="644" xlink:href="#d"/>
  <use x="142.242188" y="644" xlink:href="#c"/>
  <use x="155.628906" y="644" xlink:href="#b"/>
  <use x="174.617188" y="644" xlink:href="#j"/>
  <use x="204.410156" y="644" xlink:href="#i"/>
  <use x="224.453125" y="644" xlink:href="#h"/>
  <use x="252.453125" y="644" xlink:href="#a"/>
  <use x="271.6875" y="644" xlink:href="#g"/>
  <use x="291.621094" y="644" xlink:href="#a"/>
  <use x="310.859375" y="644" xlink:href="#t"/>
  <use x="329.476562" y="644" xlink:href="#s"/>
  <use x="339.078125" y="644" xlink:href="#f"/>
  <use x="348.671875" y="644" xlink:href="#d"/>
  <use x="367.570312" y="644" xlink:href="#r"/>
  <use x="384.234375" y="644" xlink:href="#d"/>
  <use x="70" y="672" xlink:href="#q"/>
  <use x="82.183594" y="672" xlink:href="#e"/>
  <use x="95.992188" y="672" xlink:href="#a"/>
  <use x="115.226562" y="672" xlink:href="#p"/>
  <use x="154.152344" y="672" xlink:href="#c"/>
  <use x="167.535156" y="672" xlink:href="#o"/>
  <use x="187.46875" y="672" xlink:href="#b"/>
  <use x="216.207031" y="672" xlink:href="#n"/>
  <use x="239.640625" y="672" xlink:href="#a"/>
  <use x="258.878906" y="672" xlink:href="#m"/>
  <use x="278.8125" y="672" xlink:href="#g"/>
  <use x="308.492188" y="672" xlink:href="#l"/>
  <use x="329.015625" y="672" xlink:href="#e"/>
  <use x="342.820312" y="672" xlink:href="#a"/>
  <use x="362.058594" y="672" xlink:href="#f"/>
  <use x="371.65625" y="672" xlink:href="#b"/>
  <use x="390.648438" y="672" xlink:href="#k"/>
  <use x="407.242188" y="672" xlink:href="#c"/>
 </g>
</svg>
